<svg id="Layer_1" xmlns="http://www.w3.org/2000/svg" viewBox="0 0 98.1 91.5"><style>.st0{fill:#FFF}.st1{fill:#ed309d}</style><path class="st0" d="M46.6 86.3c-22.3 0-40.5-18.2-40.5-40.5S24.3 5.3 46.6 5.3s40.5 18.2 40.5 40.5c0 1.7-1.3 3-3 3s-3-1.3-3-3c0-19-15.5-34.5-34.5-34.5S12.1 26.7 12.1 45.8s15.5 34.5 34.5 34.5c5.9 0 11.7-1.5 16.8-4.4 1.4-.8 3.3-.3 4.1 1.2.8 1.4.3 3.3-1.2 4.1-6 3.3-12.8 5.1-19.7 5.1z"/><path class="st0" d="M84.5 52.2L72.3 41.9c-1.3-1.1-1.4-3-.3-4.2 1.1-1.3 3-1.4 4.2-.3l7.7 6.5 6.6-7.6c1.1-1.2 3-1.4 4.2-.3 1.2 1.1 1.4 3 .3 4.2l-10.5 12z"/><path class="st1" d="M30.9 52.6c.7-1.6 2.2-3.2 4.7-5 2.1-1.5 3.5-2.6 4.1-3.3 1-1 1.4-2.1 1.4-3.4 0-1-.3-1.8-.8-2.5s-1.3-1-2.4-1c-1.4 0-2.4.5-2.9 1.6-.3.6-.5 1.6-.5 2.9H30c.1-2 .4-3.6 1.1-4.8 1.2-2.3 3.4-3.5 6.6-3.5 2.5 0 4.5.7 5.9 2.1 1.5 1.4 2.2 3.2 2.2 5.5 0 1.7-.5 3.3-1.6 4.6-.7.9-1.8 1.9-3.4 3L39 50.1c-1.2.8-1.9 1.4-2.4 1.8-.4.4-.8.8-1.1 1.3h10.2v4.1H29.8c.1-1.7.4-3.3 1.1-4.7zM64.5 52.2h-2.7v5h-4.5v-5H48v-4L56.6 34h5.2v14.7h2.7v3.5zm-7.1-3.6V38.5l-5.9 10.1h5.9z"/><path class="st0" d="M49.1 26c-1.1 0-2-.9-2-2v-5c0-1.1.9-2 2-2s2 .9 2 2v5c0 1.1-.9 2-2 2zM49.1 76c-1.1 0-2-.9-2-2v-5c0-1.1.9-2 2-2s2 .9 2 2v5c0 1.1-.9 2-2 2z"/><g><path class="st0" d="M24.8 50h-5c-1.1 0-2-.9-2-2s.9-2 2-2h5c1.1 0 2 .9 2 2s-.9 2-2 2z"/></g></svg>