<svg id="Layer_1" xmlns="http://www.w3.org/2000/svg" viewBox="0 0 144 112"><style>.st0{fill:#ed309d}.st1{fill:#FFF}.st2{font-family:&amp;apos;HelveticaNeue-Medium&amp;apos;}.st3{font-size:20.5054px}</style><path class="st0" d="M12 66.2V15.6c0-2.8 2.3-5.1 5.1-5.1h50.6c2.8 0 5.1 2.3 5.1 5.1v50.6c0 .9-.8 1.7-1.7 1.7H13.7c-.9 0-1.7-.7-1.7-1.7z"/><path class="st1" d="M16.4 88.4c-4 0-7.3-3.3-7.3-7.3s3.3-7.3 7.3-7.3h29.2l-6.1 5.3c-2 1.7-3.3 4.1-3.7 6.7l-.4 2.6h-19z"/><path d="M37.5 76.9C35 79 33.3 82 32.8 85.4H16.4c-2.4 0-4.3-1.9-4.3-4.3s1.9-4.3 4.3-4.3h21.1m16.2-5.9H16.4c-5.7 0-10.3 4.6-10.3 10.3s4.6 10.3 10.3 10.3H38l.7-5.1c.3-1.9 1.2-3.6 2.7-4.9l12.3-10.6z"/><path d="M57.2 87.4c0 5.8-4.7 10.6-10.6 10.6S36 93.3 36 87.4c0-5.8 4.7-10.6 10.6-10.6s10.6 4.8 10.6 10.6zm55.3 0c0 5.8-4.7 10.6-10.6 10.6-5.8 0-10.6-4.7-10.6-10.6 0-5.8 4.7-10.6 10.6-10.6 5.9.1 10.6 4.8 10.6 10.6z"/><path class="st1" d="M113.1 88.4l-.4-2.6c-.8-5.3-5.4-9.4-10.8-9.4s-10.1 4-10.8 9.4l-.4 2.6H57.8l-.4-2.6c-.4-2.6-1.7-5-3.7-6.7l-6.1-5.3H79V28.3c0-3.5 2.9-6.4 6.4-6.4h16c5.5 0 10.7 2.7 13.7 7.3l10.3 15.3c1.9 2.8 2.8 6 2.8 9.3V74c3.3.7 5.8 3.6 5.8 7.1 0 4-3.3 7.3-7.3 7.3h-13.6zM110 46.2l-6.4-9.1H92.7v9.1H110z"/><path d="M101.4 24.9c4.5 0 8.7 2.2 11.3 6L123 46.2c1.5 2.2 2.3 4.9 2.3 7.6v23.1h1.6c2.4 0 4.3 1.9 4.3 4.3s-1.9 4.3-4.3 4.3h-11.2c-1-6.7-6.8-11.9-13.8-11.9-7 0-12.8 5.2-13.8 11.9H60.4c-.5-3.4-2.2-6.4-4.7-8.5H82V28.3c0-1.9 1.5-3.4 3.4-3.4h16m-10 24.3h21.2c1.4 0 2.2-1.6 1.4-2.7l-8.3-11.7c-.3-.5-.8-.7-1.4-.7H91.4c-.9 0-1.7.8-1.7 1.7v11.7c0 1 .8 1.7 1.7 1.7m10-30.3h-16c-5.2 0-9.4 4.2-9.4 9.4v42.6H39.6l12.2 10.5c1.5 1.3 2.4 3 2.7 4.9l.7 5.1h38.1l.7-5.1c.6-3.9 3.9-6.8 7.9-6.8 3.9 0 7.3 2.9 7.9 6.8l.7 5.1h16.4c5.7 0 10.3-4.6 10.3-10.3 0-4.1-2.4-7.6-5.8-9.3v-18c0-3.9-1.2-7.7-3.4-11l-10.3-15.3c-3.7-5.4-9.8-8.6-16.3-8.6zm-5.7 21.2h6.4l2.2 3.1h-8.6v-3.1z"/><text transform="translate(19.777 46.255)" class="st1 st2 st3">B-24</text><ellipse cx="99.6" cy="41.8" rx="7.1" ry="4.7"/></svg>