<svg id="Layer_1" xmlns="http://www.w3.org/2000/svg" viewBox="0 0 131.4 122.9"><style>.st0{fill:#ed309d}.st1{fill:none;stroke:#000;stroke-width:6;stroke-linecap:round;stroke-linejoin:round;stroke-miterlimit:10}</style><circle cx="39.7" cy="48.6" r="7"/><circle cx="88.1" cy="48.6" r="7"/><path class="st0" d="M87.1 70.8c0 10.2-10.3 18.5-22.9 18.5-12.7 0-22.9-8.3-22.9-18.5s10.3-.5 22.9-.5c12.7 0 22.9-9.7 22.9.5z"/><path class="st1" d="M118.1 61.3c0 10.6-4 20.3-10.6 28.2-2.2 2.5 18.3 17 15.6 19.1-3.8 3-31-6.6-35.7-4.6-7.3 3.1-15.6 4.9-24.3 4.9-30.4 0-55-21.3-55-47.7s24.6-47.7 55-47.7 55 21.5 55 47.8z"/></svg>