<svg id="Layer_1" xmlns="http://www.w3.org/2000/svg" xmlns:xlink="http://www.w3.org/1999/xlink" viewBox="0 0 129.9 140"><style>.st0{fill:#eb008b}.st1{fill:#FFF}.st2{fill:none}.st3{clip-path:url(#SVGID_2_)}.st4{clip-path:url(#SVGID_4_);fill:#FFF}.st5{fill:none;stroke:#000;stroke-width:5;stroke-linecap:round;stroke-linejoin:round;stroke-miterlimit:10}</style><path d="M112.3 65.5L85 35.4c-2.3-2.5-6.2-2.7-8.7-.4L18 88c-2.5 2.3-2.7 6.2-.4 8.7l27.3 30c2.3 2.5 6.2 2.7 8.7.4l58.2-52.9c2.5-2.3 2.7-6.2.5-8.7zM91 48.6l8.7 9.6c.3.3.3.8-.1 1.1-.3.3-.8.3-1.1-.1l-8.7-9.6c-.3-.3-.3-.8.1-1.1.3-.2.8-.2 1.1.1zm-57.5 61c-1.1-1.3-1-3.2.2-4.3s3.2-1 4.3.2c1.1 1.3 1.1 3.2-.2 4.3-1.2 1.1-3.1 1.1-4.3-.2zm21.1 10.8L24.8 87.6l51.7-47 29.8 32.8-51.7 47z"/><path class="st0" d="M58.7 61.7c-3.2 2.9-5.3 6.8-6 11.1 0 0-1 12.3-9.3 29.3 18.3-7.4 29.4-7.2 29.4-7.2 4.3-.3 8.4-2 11.6-4.9 7.8-7.1 8.4-19.2 1.3-27-7.1-7.9-19.2-8.4-27-1.3"/><path class="st1" d="M81.5 86.4c-6 5.4-15.2 5-20.6-1-5.4-6-5-15.2 1-20.6 6-5.4 15.2-5 20.6 1 5.4 6 5 15.2-1 20.6"/><path class="st2" d="M82.3 66c-2.7-2.9-6.2-4.5-9.9-4.7-3.7-.2-7.4 1-10.3 3.7-2.9 2.7-4.5 6.2-4.6 9.9-.2 3.7 1 7.4 3.7 10.3 2.7 2.9 6.2 4.5 9.9 4.6 3.6.2 7.3-1 10.3-3.7 2.9-2.7 4.5-6.2 4.7-9.9.1-3.5-1.1-7.3-3.8-10.2z"/><path class="st0" d="M60.6 70.1l6.4-5.8 2.3 2.5c.4.4.7.8.8 1.2.2.4.2.8.1 1.2-.1.5-.3.9-.7 1.2-.4.3-.8.5-1.2.5-.4 0-.9-.1-1.3-.4.3.5.5 1 .4 1.5-.1.5-.3.9-.7 1.3-.5.4-1.1.7-1.7.6-.6 0-1.2-.4-1.9-1l-2.5-2.8zm4.7-2.3l1.3 1.4c.3.3.6.4.9.4.3 0 .6-.1.9-.3.3-.3.4-.6.4-.9 0-.3-.2-.6-.4-.9L67 66.2l-1.7 1.6zm-2.8 2.5l1.4 1.5c.3.3.6.5.9.5.3 0 .6-.1.9-.3.3-.2.4-.5.4-.9 0-.3-.1-.7-.4-1l-1.4-1.5-1.8 1.7zM70.2 74.9l-.9.8-2.1-2.3.9-.8 2.1 2.3zM72.6 81.9l-.7.6-4.1-4.5.7-.6c3 .6 4.8.8 5.6.8.7 0 1.3-.3 1.7-.6.4-.4.6-.8.5-1.3 0-.5-.2-1-.5-1.3-.4-.4-.8-.6-1.3-.7-.5-.1-1 .1-1.5.5l-.5-.9c1.5-.8 2.9-.6 4 .6.6.7.9 1.4.9 2.1 0 .8-.3 1.4-.8 1.9-.4.3-.8.6-1.3.7-.5.1-1.3.1-2.2 0-1-.1-2.1-.3-3.5-.6l3 3.3zM75.9 86.9l-.7-.8 1.5-1.4-2.9-3.2.5-.5 7.1-1.1.9 1L78 85l.9 1-.6.6-.9-1-1.5 1.3zm1.4-2.7l3-2.7c.2-.2.5-.4.7-.6-.4.1-.7.2-.9.2l-4.9.8 2.1 2.3z"/><g><defs><path id="SVGID_1_" d="M72.79 58.195l3.85-3.498 16.41 18.056-3.847 3.498z"/></defs><clipPath id="SVGID_2_"><use xlink:href="#SVGID_1_" overflow="visible"/></clipPath><g class="st3"><defs><path id="SVGID_3_" d="M89.8 75.6c-.1-4.1-1.7-8.3-4.7-11.6-3.3-3.7-7.8-5.6-12.4-5.9 4.4.8 8.9 2.6 12.1 6.4 3.1 3.7 4.4 7.3 5 11.1"/></defs><clipPath id="SVGID_4_"><use xlink:href="#SVGID_3_" overflow="visible"/></clipPath><path class="st4" d="M72.79 58.195l3.85-3.498 16.41 18.056-3.847 3.498z"/></g></g><g><path class="st1" d="M54.7 98c-.1.1-.2.1-.3.2l-6-6.6v-.1c0-.1.1-.2.2-.3.1-.1.1-.1.2-.1h.1c.2-.1.4 0 .5.1l.4.4.4.4v.8l3.3 3.7h.8l.4.4.3.4c.1.2.1.4 0 .5 0 0 0 .1-.1.1s-.2 0-.2.1M54 98.1h-1.6l-4.2-4.7v-1.6zM52.1 98.1l-1.6-.1-2.4-2.7.1-1.6zM50.2 98l-1.1-.1H49c-.3 0-.6-.1-.8-.4-.1-.2-.2-.5-.2-.8v-.1l.1-1.1 2.1 2.5zM54.9 95.4l-.5.5 1.1 1.3.4-.4-.5-.6-.3-5H55l.3 4.7-.4-.5zM55.3 90.5v-.3c0-.2 0-.6.2-1.2.3-.8 1.1-1.3 1.1-1.3.1-.1.1-.3.1-.4-.1-.2-.4-.2-.5 0 0 0-.7.6-1.1 1.2v.1-.2l.1-.1c.3-.5.6-.7.8-.9h.1c.2-.2.4-.3.6-.3.1 0 .2.1.3.2.1.1.2.3.1.4 0 .1 0 .1-.1.1 0 .1-.1.2-.2.2-.2.1-.6.5-.6.5s.3-.2.5-.2c.1-.1.4-.3.5-.4.1-.1.3-.2.1-.7-.2-.6-1.1-.4-1.1-.4-.7.2-1.1.4-1.5.6-.2.1-.3.2-.4.2l-.3.2c0 .1 0 .6.4 1 .1.2.3.3.4.4l.1.1c-.1.2-.1.5-.1.7v.6c0 .1 0 .2.1.2 0 0 .1.1.2.1h.2c-.1 0 0-.2 0-.4"/><path class="st1" d="M54.5 89.7c0-.1.1-.1.1-.2v-.1-.1c-.1-.1-.3-.2-.5-.4-.1-.2-.2-.3-.3-.5-.1-.2-.1-.3-.1-.4l-.2.2-.4.4-.2.2c-.3.2-.7.5-1.2.7-.6.3-1.4.4-1.6.4-.1 0-.2.1-.3.1-.2.2-.3.6 0 .8 0 .2.2.2.4.2.1 0 .6 0 1.4-.3.8-.3 1.3-.5 1.4-.6.1-.1-.3.5-.6.8-.3.2-.8.5-1 .6-.1 0-.1.1-.2.1-.2.2-.3.6 0 .8.2.2.5.2.7.1.2-.1.7-.3 1.4-.9.5-.5.9-1.2 1.2-1.9M58.4 86.2v.3l.2 1.9v.3s0 .1.1.1c0 0 .1.1.2.1s.2-.1.2-.2v-.1c.6-.1 1-.6 1-1.2-.1.3-.3.6-.9.8h-.1s0-.1.1-.1h.1c.6-.2.7-.7.7-1V87c-.2-.4-.6-.7-1.1-.7v-.1c0-.1-.1-.2-.2-.2-.3 0-.4.1-.3.2M57.8 86.8l-.2.2c-.2.4-.2.9.1 1.2.1.1.3.2.4.3h.3l-.2-1.9c-.1 0-.3 0-.4.2M55 88.6z"/></g><g><path class="st5" d="M60.6 15.4l6.8 11.1M83.4 8.3l-3 12.7M44.9 32l12.6 3"/></g></svg>