<svg id="Layer_1" xmlns="http://www.w3.org/2000/svg" viewBox="0 0 123 102"><style>.st0{fill:#ed309d}.st1{fill:#FFF}</style><path class="st0" d="M31.6 74.8s3.2-11.6-2-14.1-8.3 7.3-5.7 9.7"/><path d="M50 83.8c24.1 0 36.7-14.5 37.3-15.1 1.4-1.7 1.2-4.2-.5-5.6-1.7-1.4-4.2-1.2-5.6.4-.1.1-2.8 3.2-8 6.2-6.9 4.1-14.7 6.1-23.2 6.1-20.4 0-31.1-12.2-31.2-12.3-1.4-1.7-4-1.9-5.6-.5-1.7 1.4-1.9 4-.5 5.6.6.7 13.2 15.2 37.3 15.2z"/><path class="st1" d="M67.8 18.2h39.5v64.5H67.8z"/><path d="M13.4 41.3c-1.5 0-2.9-.9-3.5-2.4-.7-1.9.2-4.1 2.2-4.8l3-1.1-2.9-1c-1.9-.7-3-2.8-2.3-4.7.7-1.9 2.8-3 4.7-2.3L37 32.6 14.8 41c-.5.2-.9.3-1.4.3z"/><path class="st0" d="M80.4 33.2c0-.7-.6-1.3-1.3-1.3h-1.4c-.7 0-1.3.6-1.3 1.3v.5h4.1l-.1-.5z"/><path class="st0" d="M76.3 34.8c-.8 0-1.5.7-1.5 1.5v14.4c0 .8.7 1.5 1.5 1.5h23.5c.8 0 1.5-.7 1.5-1.5V36.3c0-.8-.7-1.5-1.5-1.5h-4.9l-.6-3.1c-.1-.7-.8-1.2-1.5-1.2h-9.1c-.7 0-1.3.5-1.5 1.2l-.6 3.1H76.3zM88 37.1c3.3 0 6 2.7 6 6.1 0 3.4-2.7 6.1-6 6.1s-6-2.7-6-6.1c0-3.3 2.7-6.1 6-6.1z"/><g><path d="M104.4 13.4l-33.9.3c-2.8 0-5.1 2.3-5.1 5.2l.6 65.6c0 2.8 2.4 5.1 5.2 5.1l33.9-.3c2.8 0 5.1-2.3 5.1-5.2l-.5-65.7c-.1-2.8-2.5-5-5.3-5zm-22.3 3.9l10.8-.1c.3 0 .6.3.6.6s-.3.6-.6.6l-10.8.1c-.3 0-.6-.3-.6-.6 0-.4.3-.6.6-.6zm6 69.6c-1.4 0-2.6-1.1-2.6-2.5s1.1-2.6 2.5-2.6 2.6 1.1 2.6 2.5-1.1 2.6-2.5 2.6zm18.4-7.1l-37 .3-.5-58.3 37-.3.5 58.3z"/></g></svg>