<?xml version="1.0" encoding="utf-8"?>
<!-- Generator: Adobe Illustrator 19.2.0, SVG Export Plug-In . SVG Version: 6.00 Build 0)  -->
<svg version="1.1" id="Layer_1" xmlns="http://www.w3.org/2000/svg" xmlns:xlink="http://www.w3.org/1999/xlink" x="0px" y="0px"
	 viewBox="0 0 131.4 122.9" style="enable-background:new 0 0 131.4 122.9;" xml:space="preserve">
<style type="text/css">
	.st0{fill:#ED309D;}
	.st1{fill:none;stroke:#000000;stroke-width:6;stroke-linecap:round;stroke-linejoin:round;stroke-miterlimit:10;}
</style>
<g>
	<g>
		<g>
			<circle cx="39.7" cy="48.6" r="7"/>
			<circle cx="88.1" cy="48.6" r="7"/>
		</g>
	</g>
	<path class="st0" d="M87.1,70.8c0,10.2-10.3,18.5-22.9,18.5c-12.7,0-22.9-8.3-22.9-18.5s10.3-0.5,22.9-0.5
		C76.9,70.3,87.1,60.6,87.1,70.8z"/>
</g>
<path class="st1" d="M118.1,61.3c0,10.6-4,20.3-10.6,28.2c-2.2,2.5,18.3,17,15.6,19.1c-3.8,3-31-6.6-35.7-4.6
	c-7.3,3.1-15.6,4.9-24.3,4.9c-30.4,0-55-21.3-55-47.7s24.6-47.7,55-47.7S118.1,35,118.1,61.3z"/>
</svg>
