<?xml version="1.0" encoding="utf-8"?>
<!-- Generator: Adobe Illustrator 19.2.0, SVG Export Plug-In . SVG Version: 6.00 Build 0)  -->
<svg version="1.1" id="Layer_1" xmlns="http://www.w3.org/2000/svg" xmlns:xlink="http://www.w3.org/1999/xlink" x="0px" y="0px"
	 viewBox="0 0 129.9 140" style="enable-background:new 0 0 129.9 140;" xml:space="preserve">
<style type="text/css">
	.st0{fill:#EB008B;}
	.st1{fill:#FFFFFF;}
	.st2{fill:none;}
	.st3{clip-path:url(#SVGID_2_);}
	.st4{clip-path:url(#SVGID_4_);fill:#FFFFFF;}
	.st5{fill:none;stroke:#000000;stroke-width:5;stroke-linecap:round;stroke-linejoin:round;stroke-miterlimit:10;}
</style>
<g>
	<path d="M112.3,65.5L85,35.4c-2.3-2.5-6.2-2.7-8.7-0.4L18,88c-2.5,2.3-2.7,6.2-0.4,8.7l27.3,30c2.3,2.5,6.2,2.7,8.7,0.4l58.2-52.9
		C114.3,71.9,114.5,68,112.3,65.5z M91,48.6l8.7,9.6c0.3,0.3,0.3,0.8-0.1,1.1c-0.3,0.3-0.8,0.3-1.1-0.1l-8.7-9.6
		c-0.3-0.3-0.3-0.8,0.1-1.1C90.2,48.3,90.7,48.3,91,48.6z M33.5,109.6c-1.1-1.3-1-3.2,0.2-4.3s3.2-1,4.3,0.2
		c1.1,1.3,1.1,3.2-0.2,4.3C36.6,110.9,34.7,110.9,33.5,109.6z M54.6,120.4L24.8,87.6l51.7-47l29.8,32.8L54.6,120.4z"/>
</g>
<g>
	<path class="st0" d="M58.7,61.7c-3.2,2.9-5.3,6.8-6,11.1c0,0-1,12.3-9.3,29.3c18.3-7.4,29.4-7.2,29.4-7.2c4.3-0.3,8.4-2,11.6-4.9
		c7.8-7.1,8.4-19.2,1.3-27C78.6,55.1,66.5,54.6,58.7,61.7"/>
	<path class="st1" d="M81.5,86.4c-6,5.4-15.2,5-20.6-1c-5.4-6-5-15.2,1-20.6c6-5.4,15.2-5,20.6,1C87.9,71.8,87.5,81,81.5,86.4"/>
	<path class="st2" d="M82.3,66c-2.7-2.9-6.2-4.5-9.9-4.7c-3.7-0.2-7.4,1-10.3,3.7l0,0c-2.9,2.7-4.5,6.2-4.6,9.9
		c-0.2,3.7,1,7.4,3.7,10.3l0,0c2.7,2.9,6.2,4.5,9.9,4.6c3.6,0.2,7.3-1,10.3-3.7l0,0c2.9-2.7,4.5-6.2,4.7-9.9
		C86.2,72.7,85,68.9,82.3,66L82.3,66z"/>
	<g>
		<path class="st0" d="M60.6,70.1l6.4-5.8l2.3,2.5c0.4,0.4,0.7,0.8,0.8,1.2c0.2,0.4,0.2,0.8,0.1,1.2c-0.1,0.5-0.3,0.9-0.7,1.2
			c-0.4,0.3-0.8,0.5-1.2,0.5c-0.4,0-0.9-0.1-1.3-0.4c0.3,0.5,0.5,1,0.4,1.5c-0.1,0.5-0.3,0.9-0.7,1.3c-0.5,0.4-1.1,0.7-1.7,0.6
			c-0.6,0-1.2-0.4-1.9-1L60.6,70.1z M65.3,67.8l1.3,1.4c0.3,0.3,0.6,0.4,0.9,0.4c0.3,0,0.6-0.1,0.9-0.3c0.3-0.3,0.4-0.6,0.4-0.9
			c0-0.3-0.2-0.6-0.4-0.9L67,66.2L65.3,67.8z M62.5,70.3l1.4,1.5c0.3,0.3,0.6,0.5,0.9,0.5c0.3,0,0.6-0.1,0.9-0.3
			c0.3-0.2,0.4-0.5,0.4-0.9c0-0.3-0.1-0.7-0.4-1l-1.4-1.5L62.5,70.3z"/>
		<path class="st0" d="M70.2,74.9l-0.9,0.8l-2.1-2.3l0.9-0.8L70.2,74.9z"/>
		<path class="st0" d="M72.6,81.9l-0.7,0.6L67.8,78l0.7-0.6c3,0.6,4.8,0.8,5.6,0.8c0.7,0,1.3-0.3,1.7-0.6c0.4-0.4,0.6-0.8,0.5-1.3
			c0-0.5-0.2-1-0.5-1.3c-0.4-0.4-0.8-0.6-1.3-0.7c-0.5-0.1-1,0.1-1.5,0.5l-0.5-0.9c1.5-0.8,2.9-0.6,4,0.6c0.6,0.7,0.9,1.4,0.9,2.1
			c0,0.8-0.3,1.4-0.8,1.9c-0.4,0.3-0.8,0.6-1.3,0.7c-0.5,0.1-1.3,0.1-2.2,0c-1-0.1-2.1-0.3-3.5-0.6L72.6,81.9z"/>
		<path class="st0" d="M75.9,86.9l-0.7-0.8l1.5-1.4l-2.9-3.2l0.5-0.5l7.1-1.1l0.9,1L78,85l0.9,1l-0.6,0.6l-0.9-1L75.9,86.9z
			 M77.3,84.2l3-2.7c0.2-0.2,0.5-0.4,0.7-0.6c-0.4,0.1-0.7,0.2-0.9,0.2l-4.9,0.8L77.3,84.2z"/>
	</g>
	<g>
		<g>
			<defs>
				
					<rect id="SVGID_1_" x="80.3" y="53.3" transform="matrix(0.74 -0.6726 0.6726 0.74 -22.4805 72.7626)" width="5.2" height="24.4"/>
			</defs>
			<clipPath id="SVGID_2_">
				<use xlink:href="#SVGID_1_"  style="overflow:visible;"/>
			</clipPath>
			<g class="st3">
				<defs>
					<path id="SVGID_3_" d="M89.8,75.6c-0.1-4.1-1.7-8.3-4.7-11.6c-3.3-3.7-7.8-5.6-12.4-5.9c4.4,0.8,8.9,2.6,12.1,6.4
						C87.9,68.2,89.2,71.8,89.8,75.6"/>
				</defs>
				<clipPath id="SVGID_4_">
					<use xlink:href="#SVGID_3_"  style="overflow:visible;"/>
				</clipPath>
				
					<rect x="80.3" y="53.3" transform="matrix(0.74 -0.6726 0.6726 0.74 -22.4805 72.7626)" class="st4" width="5.2" height="24.4"/>
			</g>
		</g>
	</g>
	<g>
		<path class="st1" d="M54.7,98L54.7,98c-0.1,0.1-0.2,0.1-0.3,0.2l0,0l-6-6.6l0,0l0-0.1c0-0.1,0.1-0.2,0.2-0.3
			c0.1-0.1,0.1-0.1,0.2-0.1c0,0,0.1,0,0.1,0l0,0c0.2-0.1,0.4,0,0.5,0.1l0,0l0.4,0.4l0.4,0.4l0,0.8l3.3,3.7l0.8,0l0.4,0.4l0,0
			l0.3,0.4l0,0c0.1,0.2,0.1,0.4,0,0.5l0,0c0,0,0,0.1-0.1,0.1C54.8,97.9,54.7,97.9,54.7,98"/>
		<polygon class="st1" points="54,98.1 54,98.1 53.9,98.1 52.4,98.1 48.2,93.4 48.2,91.9 48.2,91.8 		"/>
		<polygon class="st1" points="52.1,98.1 52.1,98.1 50.5,98 48.1,95.3 48.2,93.7 		"/>
		<path class="st1" d="M50.2,98L50.2,98l-1.1-0.1c0,0,0,0-0.1,0c-0.3,0-0.6-0.1-0.8-0.4l0,0l0,0C48.1,97.3,48,97,48,96.7
			c0,0,0,0,0-0.1l0.1-1.1L50.2,98z"/>
		<path class="st1" d="M54.9,95.4L54.9,95.4l-0.5,0.5l1.1,1.3l0.4-0.4l-0.5-0.6l-0.3-5c0,0,0,0,0,0c0,0,0,0,0,0c0,0,0,0,0,0
			c0,0,0,0,0,0c0,0,0,0,0,0c0,0,0,0,0,0c0,0-0.1,0-0.1,0l0.3,4.7l0,0L54.9,95.4z"/>
		<path class="st1" d="M55.3,90.5L55.3,90.5l0-0.3c0-0.2,0-0.6,0.2-1.2c0.3-0.8,1.1-1.3,1.1-1.3c0.1-0.1,0.1-0.3,0.1-0.4
			c0,0,0,0,0,0c-0.1-0.2-0.4-0.2-0.5,0c0,0-0.7,0.6-1.1,1.2c0,0,0,0,0,0c0,0,0,0,0,0.1c0,0,0,0,0,0c0,0,0,0,0,0l0-0.2c0,0,0,0,0,0
			l0,0c0,0,0.1-0.1,0.1-0.1c0.3-0.5,0.6-0.7,0.8-0.9l0.1,0c0.2-0.2,0.4-0.3,0.6-0.3c0.1,0,0.2,0.1,0.3,0.2c0.1,0.1,0.2,0.3,0.1,0.4
			c0,0.1,0,0.1-0.1,0.1c0,0.1-0.1,0.2-0.2,0.2c-0.2,0.1-0.6,0.5-0.6,0.5s0.3-0.2,0.5-0.2c0.1-0.1,0.4-0.3,0.5-0.4
			c0.1-0.1,0.3-0.2,0.1-0.7c-0.2-0.6-1.1-0.4-1.1-0.4c-0.7,0.2-1.1,0.4-1.5,0.6c-0.2,0.1-0.3,0.2-0.4,0.2L54,87.8l0,0
			c0,0.1,0,0.6,0.4,1l0,0c0.1,0.2,0.3,0.3,0.4,0.4l0.1,0.1c-0.1,0.2-0.1,0.5-0.1,0.7c0,0.4,0,0.6,0,0.6c0,0.1,0,0.2,0.1,0.2
			c0,0,0.1,0.1,0.2,0.1c0,0,0,0,0.1,0c0,0,0.1,0,0.1,0C55.2,90.9,55.3,90.7,55.3,90.5"/>
		<path class="st1" d="M54.5,89.7L54.5,89.7C54.5,89.7,54.5,89.7,54.5,89.7c0-0.1,0.1-0.1,0.1-0.2c0,0,0,0,0-0.1c0-0.1,0-0.1,0-0.1
			c0,0,0,0,0,0c-0.1-0.1-0.3-0.2-0.5-0.4l0,0c-0.1-0.2-0.2-0.3-0.3-0.5c-0.1-0.2-0.1-0.3-0.1-0.4l-0.2,0.2l0,0l0,0l0,0
			c-0.1,0.1-0.3,0.3-0.4,0.4c-0.1,0.1-0.1,0.1-0.2,0.2c-0.3,0.2-0.7,0.5-1.2,0.7c-0.6,0.3-1.4,0.4-1.6,0.4c0,0,0,0,0,0c0,0,0,0,0,0
			c0,0,0,0,0,0c0,0,0,0,0,0c-0.1,0-0.2,0.1-0.3,0.1c-0.2,0.2-0.3,0.6,0,0.8C49.8,91,50,91,50.2,91c0,0,0,0,0,0c0.1,0,0.6,0,1.4-0.3
			c0.8-0.3,1.3-0.5,1.4-0.6c0.1-0.1-0.3,0.5-0.6,0.8c-0.3,0.2-0.8,0.5-1,0.6l0,0c-0.1,0-0.1,0.1-0.2,0.1c-0.2,0.2-0.3,0.6,0,0.8
			c0.2,0.2,0.5,0.2,0.7,0.1c0,0,0,0,0,0l0,0c0.2-0.1,0.7-0.3,1.4-0.9l0,0C53.8,91.1,54.2,90.4,54.5,89.7
			C54.5,89.7,54.5,89.7,54.5,89.7"/>
		<path class="st1" d="M58.4,86.2L58.4,86.2l0,0.3l0,0l0.2,1.9l0,0l0,0.3c0,0,0,0.1,0.1,0.1c0,0,0.1,0.1,0.2,0.1
			c0.1,0,0.2-0.1,0.2-0.2l0-0.1c0.6-0.1,1-0.6,1-1.2c-0.1,0.3-0.3,0.6-0.9,0.8c0,0-0.1,0-0.1,0c0,0,0,0,0,0c0,0,0-0.1,0.1-0.1
			c0,0,0.1,0,0.1,0c0.6-0.2,0.7-0.7,0.7-1c0,0,0-0.1,0-0.1c-0.2-0.4-0.6-0.7-1.1-0.7l0-0.1c0-0.1-0.1-0.2-0.2-0.2
			C58.4,86,58.3,86.1,58.4,86.2"/>
		<path class="st1" d="M57.8,86.8L57.8,86.8c-0.1,0.1-0.1,0.1-0.2,0.2c-0.2,0.4-0.2,0.9,0.1,1.2c0.1,0.1,0.3,0.2,0.4,0.3
			c0.1,0,0.2,0,0.3,0l-0.2-1.9C58.1,86.6,57.9,86.6,57.8,86.8"/>
		<path class="st1" d="M55,88.6L55,88.6C55,88.6,55,88.6,55,88.6C55,88.6,55,88.6,55,88.6L55,88.6z"/>
	</g>
</g>
<g>
	<line class="st5" x1="60.6" y1="15.4" x2="67.4" y2="26.5"/>
	<line class="st5" x1="83.4" y1="8.3" x2="80.4" y2="21"/>
	<line class="st5" x1="44.9" y1="32" x2="57.5" y2="35"/>
</g>
</svg>
