<?xml version="1.0" encoding="utf-8"?>
<!-- Generator: Adobe Illustrator 19.2.0, SVG Export Plug-In . SVG Version: 6.00 Build 0)  -->
<svg version="1.1" id="Layer_1" xmlns="http://www.w3.org/2000/svg" xmlns:xlink="http://www.w3.org/1999/xlink" x="0px" y="0px"
	 viewBox="0 0 123 102" style="enable-background:new 0 0 123 102;" xml:space="preserve">
<style type="text/css">
	.st0{fill:#ED309D;}
	.st1{fill:#FFFFFF;}
</style>
<path class="st0" d="M31.6,74.8c0,0,3.2-11.6-2-14.1c-5.2-2.5-8.3,7.3-5.7,9.7"/>
<path d="M50,83.8c24.1,0,36.7-14.5,37.3-15.1c1.4-1.7,1.2-4.2-0.5-5.6c-1.7-1.4-4.2-1.2-5.6,0.4c-0.1,0.1-2.8,3.2-8,6.2
	c-6.9,4.1-14.7,6.1-23.2,6.1c-20.4,0-31.1-12.2-31.2-12.3c-1.4-1.7-4-1.9-5.6-0.5c-1.7,1.4-1.9,4-0.5,5.6
	C13.3,69.3,25.9,83.8,50,83.8z"/>
<rect x="67.8" y="18.2" class="st1" width="39.5" height="64.5"/>
<path d="M13.4,41.3c-1.5,0-2.9-0.9-3.5-2.4c-0.7-1.9,0.2-4.1,2.2-4.8l3-1.1l-2.9-1c-1.9-0.7-3-2.8-2.3-4.7c0.7-1.9,2.8-3,4.7-2.3
	L37,32.6L14.8,41C14.3,41.2,13.9,41.3,13.4,41.3z"/>
<g>
	<g>
		<path class="st0" d="M80.4,33.2c0-0.7-0.6-1.3-1.3-1.3h-1.4c-0.7,0-1.3,0.6-1.3,1.3v0.5h4.1L80.4,33.2L80.4,33.2z"/>
		<path class="st0" d="M76.3,34.8c-0.8,0-1.5,0.7-1.5,1.5v14.4c0,0.8,0.7,1.5,1.5,1.5h23.5c0.8,0,1.5-0.7,1.5-1.5V36.3
			c0-0.8-0.7-1.5-1.5-1.5h-4.9l-0.6-3.1c-0.1-0.7-0.8-1.2-1.5-1.2h-4.6h-4.5c-0.7,0-1.3,0.5-1.5,1.2l-0.6,3.1h-1.1L76.3,34.8
			L76.3,34.8L76.3,34.8L76.3,34.8z M88,37.1c3.3,0,6,2.7,6,6.1c0,3.4-2.7,6.1-6,6.1s-6-2.7-6-6.1C82,39.9,84.7,37.1,88,37.1z"/>
	</g>
</g>
<g>
	<path d="M104.4,13.4l-33.9,0.3c-2.8,0-5.1,2.3-5.1,5.2L66,84.5c0,2.8,2.4,5.1,5.2,5.1l33.9-0.3c2.8,0,5.1-2.3,5.1-5.2l-0.5-65.7
		C109.6,15.6,107.2,13.4,104.4,13.4z M82.1,17.3l10.8-0.1c0.3,0,0.6,0.3,0.6,0.6c0,0.3-0.3,0.6-0.6,0.6l-10.8,0.1
		c-0.3,0-0.6-0.3-0.6-0.6C81.5,17.5,81.8,17.3,82.1,17.3z M88.1,86.9c-1.4,0-2.6-1.1-2.6-2.5c0-1.4,1.1-2.6,2.5-2.6
		c1.4,0,2.6,1.1,2.6,2.5C90.6,85.7,89.5,86.9,88.1,86.9z M106.5,79.8l-37,0.3l-0.5-58.3l37-0.3L106.5,79.8z"/>
</g>
</svg>
