<?xml version="1.0" encoding="utf-8"?>
<!-- Generator: Adobe Illustrator 19.2.0, SVG Export Plug-In . SVG Version: 6.00 Build 0)  -->
<svg version="1.1" id="Layer_1" xmlns="http://www.w3.org/2000/svg" xmlns:xlink="http://www.w3.org/1999/xlink" x="0px" y="0px"
	 viewBox="0 0 98.1 91.5" style="enable-background:new 0 0 98.1 91.5;" xml:space="preserve">
<style type="text/css">
	.st0{fill:#FFFFFF;}
	.st1{fill:#ED309D;}
</style>
<path class="st0" d="M46.6,86.3c-22.3,0-40.5-18.2-40.5-40.5S24.3,5.3,46.6,5.3s40.5,18.2,40.5,40.5c0,1.7-1.3,3-3,3s-3-1.3-3-3
	c0-19-15.5-34.5-34.5-34.5S12.1,26.7,12.1,45.8s15.5,34.5,34.5,34.5c5.9,0,11.7-1.5,16.8-4.4c1.4-0.8,3.3-0.3,4.1,1.2
	c0.8,1.4,0.3,3.3-1.2,4.1C60.3,84.5,53.5,86.3,46.6,86.3z"/>
<path class="st0" d="M84.5,52.2L72.3,41.9c-1.3-1.1-1.4-3-0.3-4.2c1.1-1.3,3-1.4,4.2-0.3l7.7,6.5l6.6-7.6c1.1-1.2,3-1.4,4.2-0.3
	c1.2,1.1,1.4,3,0.3,4.2L84.5,52.2L84.5,52.2L84.5,52.2z"/>
<g>
	<path class="st1" d="M30.9,52.6c0.7-1.6,2.2-3.2,4.7-5c2.1-1.5,3.5-2.6,4.1-3.3c1-1,1.4-2.1,1.4-3.4c0-1-0.3-1.8-0.8-2.5
		c-0.5-0.7-1.3-1-2.4-1c-1.4,0-2.4,0.5-2.9,1.6c-0.3,0.6-0.5,1.6-0.5,2.9h-4.5c0.1-2,0.4-3.6,1.1-4.8c1.2-2.3,3.4-3.5,6.6-3.5
		c2.5,0,4.5,0.7,5.9,2.1c1.5,1.4,2.2,3.2,2.2,5.5c0,1.7-0.5,3.3-1.6,4.6c-0.7,0.9-1.8,1.9-3.4,3l-1.8,1.3c-1.2,0.8-1.9,1.4-2.4,1.8
		c-0.4,0.4-0.8,0.8-1.1,1.3h10.2v4.1H29.8C29.9,55.6,30.2,54,30.9,52.6z"/>
	<path class="st1" d="M64.5,52.2h-2.7v5h-4.5v-5h-9.3v-4l8.6-14.2h5.2v14.7h2.7V52.2z M57.4,48.6V38.5l-5.9,10.1H57.4z"/>
</g>
<g>
	<path class="st0" d="M49.1,26c-1.1,0-2-0.9-2-2v-5c0-1.1,0.9-2,2-2s2,0.9,2,2v5C51.1,25.1,50.2,26,49.1,26z"/>
	<path class="st0" d="M49.1,76c-1.1,0-2-0.9-2-2v-5c0-1.1,0.9-2,2-2s2,0.9,2,2v5C51.1,75.1,50.2,76,49.1,76z"/>
</g>
<g>
	<path class="st0" d="M24.8,50h-5c-1.1,0-2-0.9-2-2s0.9-2,2-2h5c1.1,0,2,0.9,2,2S25.9,50,24.8,50z"/>
</g>
</svg>
