<?xml version="1.0" encoding="utf-8"?>
<!-- Generator: Adobe Illustrator 19.2.0, SVG Export Plug-In . SVG Version: 6.00 Build 0)  -->
<svg version="1.1" id="Layer_1" xmlns="http://www.w3.org/2000/svg" xmlns:xlink="http://www.w3.org/1999/xlink" x="0px" y="0px"
	 viewBox="0 0 144 112" style="enable-background:new 0 0 144 112;" xml:space="preserve">
<style type="text/css">
	.st0{fill:#ED309D;}
	.st1{fill:#FFFFFF;}
	.st2{font-family:'HelveticaNeue-Medium';}
	.st3{font-size:20.5054px;}
</style>
<path class="st0" d="M12,66.2V15.6c0-2.8,2.3-5.1,5.1-5.1h50.6c2.8,0,5.1,2.3,5.1,5.1v50.6c0,0.9-0.8,1.7-1.7,1.7H13.7
	C12.8,67.9,12,67.2,12,66.2z"/>
<g>
	<path class="st1" d="M16.4,88.4c-4,0-7.3-3.3-7.3-7.3s3.3-7.3,7.3-7.3h29.2l-6.1,5.3c-2,1.7-3.3,4.1-3.7,6.7l-0.4,2.6H16.4z"/>
	<path d="M37.5,76.9c-2.5,2.1-4.2,5.1-4.7,8.5H16.4c-2.4,0-4.3-1.9-4.3-4.3s1.9-4.3,4.3-4.3H37.5 M53.7,70.9H37.5H16.4
		c-5.7,0-10.3,4.6-10.3,10.3s4.6,10.3,10.3,10.3h16.4H38l0.7-5.1c0.3-1.9,1.2-3.6,2.7-4.9L53.7,70.9L53.7,70.9z"/>
</g>
<path d="M57.2,87.4c0,5.8-4.7,10.6-10.6,10.6s-10.6-4.7-10.6-10.6c0-5.8,4.7-10.6,10.6-10.6S57.2,81.6,57.2,87.4z M112.5,87.4
	c0,5.8-4.7,10.6-10.6,10.6c-5.8,0-10.6-4.7-10.6-10.6c0-5.8,4.7-10.6,10.6-10.6C107.8,76.9,112.5,81.6,112.5,87.4z"/>
<g>
	<path class="st1" d="M113.1,88.4l-0.4-2.6c-0.8-5.3-5.4-9.4-10.8-9.4c-5.4,0-10.1,4-10.8,9.4l-0.4,2.6H57.8l-0.4-2.6
		c-0.4-2.6-1.7-5-3.7-6.7l-6.1-5.3H79V28.3c0-3.5,2.9-6.4,6.4-6.4h16c5.5,0,10.7,2.7,13.7,7.3l10.3,15.3c1.9,2.8,2.8,6,2.8,9.3V74
		c3.3,0.7,5.8,3.6,5.8,7.1c0,4-3.3,7.3-7.3,7.3H113.1z M110,46.2l-6.4-9.1H92.7v9.1H110z"/>
	<path d="M101.4,24.9c4.5,0,8.7,2.2,11.3,6L123,46.2c1.5,2.2,2.3,4.9,2.3,7.6v23.1h1.6c2.4,0,4.3,1.9,4.3,4.3s-1.9,4.3-4.3,4.3
		h-11.2c-1-6.7-6.8-11.9-13.8-11.9c-7,0-12.8,5.2-13.8,11.9H60.4c-0.5-3.4-2.2-6.4-4.7-8.5H82V28.3c0-1.9,1.5-3.4,3.4-3.4H101.4
		 M91.4,49.2h21.2c1.4,0,2.2-1.6,1.4-2.7l-8.3-11.7c-0.3-0.5-0.8-0.7-1.4-0.7H91.4c-0.9,0-1.7,0.8-1.7,1.7v11.7
		C89.7,48.5,90.5,49.2,91.4,49.2 M101.4,18.9h-16c-5.2,0-9.4,4.2-9.4,9.4v42.6H55.7H39.6l12.2,10.5c1.5,1.3,2.4,3,2.7,4.9l0.7,5.1
		h5.2h27.7h5.2l0.7-5.1c0.6-3.9,3.9-6.8,7.9-6.8c3.9,0,7.3,2.9,7.9,6.8l0.7,5.1h5.2h11.2c5.7,0,10.3-4.6,10.3-10.3
		c0-4.1-2.4-7.6-5.8-9.3V53.8c0-3.9-1.2-7.7-3.4-11l-10.3-15.3C114,22.1,107.9,18.9,101.4,18.9L101.4,18.9z M95.7,40.1h6.4l2.2,3.1
		h-8.6V40.1L95.7,40.1z"/>
</g>
<text transform="matrix(1 0 0 1 19.777 46.2551)" class="st1 st2 st3">B-24</text>
<ellipse cx="99.6" cy="41.8" rx="7.1" ry="4.7"/>
</svg>
